<?xml version="1.0" standalone="no"?>
<!DOCTYPE svg PUBLIC "-//W3C//DTD SVG 20010904//EN"
 "http://www.w3.org/TR/2001/REC-SVG-20010904/DTD/svg10.dtd">
<svg version="1.0" xmlns="http://www.w3.org/2000/svg"
 width="512.000000pt" height="479.000000pt" viewBox="0 0 512.000000 479.000000"
 preserveAspectRatio="xMidYMid meet">

<g transform="translate(0.000000,479.000000) scale(0.100000,-0.100000)"
fill="#000000" stroke="none">
<path d="M670 4774 c-261 -55 -457 -208 -566 -439 -121 -256 -132 -606 -29
-881 123 -327 423 -524 799 -524 142 0 229 19 383 81 32 13 33 13 101 -53 77
-75 127 -96 187 -79 81 22 125 82 125 169 0 56 -31 107 -93 155 -20 15 -37 32
-37 36 0 5 24 48 54 95 94 149 132 277 142 471 17 322 -75 588 -270 772 -110
105 -225 164 -389 198 -87 19 -319 18 -407 -1z m295 -359 c60 -10 151 -63 196
-114 105 -118 156 -335 130 -549 -11 -88 -42 -196 -61 -207 -5 -3 -29 13 -54
34 -26 22 -62 43 -81 47 -102 19 -195 -55 -195 -155 0 -53 15 -89 52 -128 l31
-32 -38 -7 c-20 -3 -69 -4 -109 -2 -176 11 -306 135 -362 343 -25 93 -30 294
-10 396 32 163 116 288 231 345 80 38 156 47 270 29z"/>
<path d="M2299 4557 c-87 -46 -131 -156 -100 -250 15 -46 88 -112 137 -126 52
-15 2573 -15 2625 -1 184 51 207 303 35 381 -39 18 -98 19 -1347 19 l-1306 0
-44 -23z"/>
<path d="M2341 3840 c-41 -10 -75 -35 -115 -84 -28 -35 -31 -44 -31 -111 0
-65 3 -78 30 -116 17 -23 50 -53 74 -66 l44 -23 746 0 c838 0 794 -3 859 75
79 97 50 248 -61 307 l-42 23 -735 2 c-404 0 -750 -2 -769 -7z"/>
<path d="M2305 1841 c-175 -80 -143 -340 47 -381 39 -8 398 -10 1333 -8 l1280
3 47 27 c141 84 134 284 -13 359 -37 19 -71 19 -1346 19 -1250 0 -1310 -1
-1348 -19z"/>
<path d="M648 1787 c-83 -43 -111 -85 -172 -263 -27 -76 -136 -384 -243 -684
-175 -490 -194 -550 -191 -596 8 -101 79 -182 177 -203 93 -20 200 28 240 107
10 20 36 97 57 170 l38 132 306 0 307 0 37 -137 c21 -76 49 -157 62 -181 52
-89 181 -128 280 -83 75 34 134 126 134 210 0 17 -72 233 -161 479 -88 246
-199 555 -245 687 -89 251 -111 297 -167 339 -60 46 -108 56 -257 56 -137 0
-139 0 -202 -33z m241 -476 c9 -6 170 -484 171 -508 0 -2 -90 -3 -200 -3 -110
0 -200 3 -200 6 0 19 144 473 156 492 15 22 48 29 73 13z"/>
<path d="M2315 1126 c-86 -37 -131 -115 -123 -211 8 -92 84 -168 181 -180 29
-3 372 -5 762 -3 l710 3 47 27 c141 84 132 292 -16 359 -39 18 -82 19 -786 18
-592 0 -751 -2 -775 -13z"/>
<path d="M2338 400 c-47 -14 -88 -44 -116 -84 -23 -34 -27 -49 -27 -112 0 -64
3 -77 30 -115 17 -23 50 -53 74 -66 l44 -23 1159 0 c1023 0 1163 2 1196 15
151 64 167 273 27 360 l-48 30 -1156 2 c-636 1 -1168 -2 -1183 -7z"/>
</g>
</svg>
