<svg xmlns:x="http://ns.adobe.com/Extensibility/1.0/" xmlns:i="http://ns.adobe.com/AdobeIllustrator/10.0/" xmlns:graph="http://ns.adobe.com/Graphs/1.0/" xmlns="http://www.w3.org/2000/svg" xmlns:xlink="http://www.w3.org/1999/xlink" version="1.1" style="" xml:space="preserve" width="25" height="25"><g id="svg_1" class="selected"><path d="M19.378579438970643,20.00714333869663 c0.30146239346478954,-0.15549594801946803 0.5275591885633819,-0.4664878440584047 0.5275591885633819,-0.8552277141070769 v-12.43967584155739 c0,-0.7256477574241808 -0.5778029208075159,-1.3217155581654734 -1.2812151722253504,-1.3217155581654734 H14.655668608022287 c-0.9295090465164323,-3.1099189603893476 -3.7682799183098603,-5.390526198008203 -7.084366246422537,-5.390526198008203 C3.476438183703032,-0.000001973141507510901 0.1603518555903583,3.4209088832867747 0.1603518555903583,7.645215471148971 c0,3.498658830438016 2.2860898171079826,6.4530818428078955 5.401201216244134,7.360141539588123 v6.427165851471319 v0 c0,0 0,0 0,0 c0,1.7622874108872977 1.3817026367136154,3.1876669343990818 3.0899895330140876,3.1876669343990818 h10.325086976169018 c0.42707172407512267,0 0.7787778497840413,-0.28507590470235733 0.8792653142723031,-0.7256477574241808 c0.1004874644882638,-0.4146558613852468 -0.1004874644882638,-0.8552277141070769 -0.4773154563192511,-1.0625556447996936 c-0.5275591885633819,-0.28507590470235733 -0.8541434481502383,-0.8033957314339183 -0.8541434481502383,-1.4253795235117845 C18.574679723064545,20.81053907013054 18.876142116529326,20.292219243398986 19.378579438970643,20.00714333869663 zM1.6676638229143022,7.645215471148971 c0,-3.3690788737551265 2.662917808938967,-6.090257964095805 5.903638538685448,-6.090257964095805 c3.265842595868546,0 5.903638538685448,2.7470950816772572 5.903638538685448,6.090257964095805 S10.837144957468297,13.735473435244778 7.571302361599748,13.735473435244778 C4.305459765731204,13.735473435244778 1.6676638229143022,11.0142943449041 1.6676638229143022,7.645215471148971 zM16.9920021573744,22.754238420373888 H8.651542604848576 c-0.7034122514178411,0 -1.2812151722253504,-0.5960678007412927 -1.2812151722253504,-1.3217155581654734 s0.5778029208075159,-1.3217155581654734 1.2812151722253504,-1.3217155581654734 h8.340459552525825 c-0.15073119673239482,0.4146558613852468 -0.25121866122065756,0.8552277141070769 -0.25121866122065756,1.3217155581654734 C16.740783496153743,21.899010706266814 16.841270960642007,22.339582558988642 16.9920021573744,22.754238420373888 z" id="svg_2"/><path d="M8.651542604848576,5.468272198876429 c0.15073119673239482,0.3109918960389339 0.12560933061032953,0.6738157747510218 -0.05024373224413222,0.9329756881168094 c-0.20097492897652877,0.28507590470235733 -0.37682799183099014,0.4146558613852468 -0.60292478692958,0.570151809404714 c-0.5275591885633819,0.3887398700486699 -0.9797527787605681,0.8033957314339183 -1.0802402432488303,1.9436993502433433 c0,0.1295799566828902 0.025121866122066017,0.2591599133657805 0.12560933061032953,0.362823878712092 c0.07536559836619781,0.1036639653463124 0.20097492897652877,0.15549594801946803 0.3265842595868562,0.15549594801946803 H8.023495951796933 c0.2260967950985917,0 0.42707172407512267,-0.18141193935604605 0.45219359019718575,-0.4405718527218286 c0.025121866122066017,-0.4664878440584047 0.12560933061032953,-0.5183198267315615 0.42707172407512267,-0.7256477574241808 c0.25121866122065756,-0.18141193935604605 0.60292478692958,-0.4405718527218286 0.954630912638494,-0.9070596967802331 c0.5275591885633819,-0.7515637487607674 0.60292478692958,-1.7622874108872977 0.20097492897652877,-2.591599133657796 c-0.45219359019718575,-0.9070596967802331 -1.35658077059155,-1.451295514848362 -2.4116991477183127,-1.451295514848362 c-1.7836524946666694,0 -2.5875522105727673,1.3217155581654734 -2.738283407305165,2.4620191769749007 c-0.025121866122066017,0.1295799566828902 0.025121866122066017,0.2591599133657805 0.1004874644882638,0.362823878712092 c0.1004874644882638,0.1036639653463124 0.2260967950985917,0.15549594801946803 0.3517061257089223,0.15549594801946803 h0.6280466530516443 c0.2260967950985917,0 0.4019498579530591,-0.15549594801946803 0.45219359019718575,-0.3887398700486699 c0.07536559836619781,-0.4664878440584047 0.3517061257089223,-1.010723662126539 1.205849573859157,-1.010723662126539 C8.274714613017595,4.872204398135137 8.551055140360313,5.235028276847228 8.651542604848576,5.468272198876429 z" id="svg_3"/><circle cx="7.6969116922100795" cy="11.040209940794034" r="0.7829670798312094" id="svg_4"/></g></svg>